<mxfile host="Electron" modified="2023-04-17T01:00:06.024Z" agent="Mozilla/5.0 (Windows NT 10.0; Win64; x64) AppleWebKit/537.36 (KHTML, like Gecko) draw.io/21.1.2 Chrome/106.0.5249.199 Electron/21.4.3 Safari/537.36" etag="5Ylni42AZuZJcNBuRcGP" version="21.1.2" type="device">
  <diagram name="Page-1" id="Ih_EPMvjT5g1LIkWWD0m">
    <mxGraphModel dx="974" dy="872" grid="1" gridSize="10" guides="1" tooltips="1" connect="1" arrows="1" fold="1" page="1" pageScale="1" pageWidth="827" pageHeight="1169" math="0" shadow="0">
      <root>
        <mxCell id="0" />
        <mxCell id="1" parent="0" />
        <mxCell id="31kXXfy3NtDjea3WsHgl-5" style="edgeStyle=orthogonalEdgeStyle;rounded=0;orthogonalLoop=1;jettySize=auto;html=1;" parent="1" source="31kXXfy3NtDjea3WsHgl-1" target="31kXXfy3NtDjea3WsHgl-2" edge="1">
          <mxGeometry relative="1" as="geometry" />
        </mxCell>
        <mxCell id="c9r8FFtM3dRX4WRmIroB-8" style="edgeStyle=orthogonalEdgeStyle;rounded=0;orthogonalLoop=1;jettySize=auto;html=1;" edge="1" parent="1" source="31kXXfy3NtDjea3WsHgl-1" target="c9r8FFtM3dRX4WRmIroB-7">
          <mxGeometry relative="1" as="geometry" />
        </mxCell>
        <mxCell id="31kXXfy3NtDjea3WsHgl-1" value="" style="sketch=0;points=[[0,0,0],[0.25,0,0],[0.5,0,0],[0.75,0,0],[1,0,0],[0,1,0],[0.25,1,0],[0.5,1,0],[0.75,1,0],[1,1,0],[0,0.25,0],[0,0.5,0],[0,0.75,0],[1,0.25,0],[1,0.5,0],[1,0.75,0]];outlineConnect=0;fontColor=#232F3E;gradientColor=#60A337;gradientDirection=north;fillColor=#277116;strokeColor=#ffffff;dashed=0;verticalLabelPosition=bottom;verticalAlign=top;align=center;html=1;fontSize=12;fontStyle=0;aspect=fixed;shape=mxgraph.aws4.resourceIcon;resIcon=mxgraph.aws4.s3;" parent="1" vertex="1">
          <mxGeometry x="450" y="160" width="80" height="80" as="geometry" />
        </mxCell>
        <mxCell id="31kXXfy3NtDjea3WsHgl-7" style="edgeStyle=orthogonalEdgeStyle;rounded=0;orthogonalLoop=1;jettySize=auto;html=1;" parent="1" source="31kXXfy3NtDjea3WsHgl-2" target="31kXXfy3NtDjea3WsHgl-1" edge="1">
          <mxGeometry relative="1" as="geometry" />
        </mxCell>
        <mxCell id="31kXXfy3NtDjea3WsHgl-2" value="" style="sketch=0;points=[[0,0,0],[0.25,0,0],[0.5,0,0],[0.75,0,0],[1,0,0],[0,1,0],[0.25,1,0],[0.5,1,0],[0.75,1,0],[1,1,0],[0,0.25,0],[0,0.5,0],[0,0.75,0],[1,0.25,0],[1,0.5,0],[1,0.75,0]];outlineConnect=0;fontColor=#232F3E;gradientColor=#945DF2;gradientDirection=north;fillColor=#5A30B5;strokeColor=#ffffff;dashed=0;verticalLabelPosition=bottom;verticalAlign=top;align=center;html=1;fontSize=12;fontStyle=0;aspect=fixed;shape=mxgraph.aws4.resourceIcon;resIcon=mxgraph.aws4.glue;" parent="1" vertex="1">
          <mxGeometry x="720" y="160" width="80" height="80" as="geometry" />
        </mxCell>
        <mxCell id="31kXXfy3NtDjea3WsHgl-4" style="edgeStyle=orthogonalEdgeStyle;rounded=0;orthogonalLoop=1;jettySize=auto;html=1;" parent="1" source="31kXXfy3NtDjea3WsHgl-3" target="31kXXfy3NtDjea3WsHgl-1" edge="1">
          <mxGeometry relative="1" as="geometry" />
        </mxCell>
        <mxCell id="31kXXfy3NtDjea3WsHgl-3" value="" style="sketch=0;points=[[0,0,0],[0.25,0,0],[0.5,0,0],[0.75,0,0],[1,0,0],[0,1,0],[0.25,1,0],[0.5,1,0],[0.75,1,0],[1,1,0],[0,0.25,0],[0,0.5,0],[0,0.75,0],[1,0.25,0],[1,0.5,0],[1,0.75,0]];outlineConnect=0;fontColor=#232F3E;gradientColor=#F78E04;gradientDirection=north;fillColor=#D05C17;strokeColor=#ffffff;dashed=0;verticalLabelPosition=bottom;verticalAlign=top;align=center;html=1;fontSize=12;fontStyle=0;aspect=fixed;shape=mxgraph.aws4.resourceIcon;resIcon=mxgraph.aws4.lambda;" parent="1" vertex="1">
          <mxGeometry x="160" y="160" width="80" height="80" as="geometry" />
        </mxCell>
        <mxCell id="31kXXfy3NtDjea3WsHgl-11" style="edgeStyle=orthogonalEdgeStyle;rounded=0;orthogonalLoop=1;jettySize=auto;html=1;startArrow=block;startFill=1;" parent="1" source="31kXXfy3NtDjea3WsHgl-6" target="31kXXfy3NtDjea3WsHgl-1" edge="1">
          <mxGeometry relative="1" as="geometry" />
        </mxCell>
        <mxCell id="31kXXfy3NtDjea3WsHgl-6" value="" style="sketch=0;points=[[0,0,0],[0.25,0,0],[0.5,0,0],[0.75,0,0],[1,0,0],[0,1,0],[0.25,1,0],[0.5,1,0],[0.75,1,0],[1,1,0],[0,0.25,0],[0,0.5,0],[0,0.75,0],[1,0.25,0],[1,0.5,0],[1,0.75,0]];outlineConnect=0;fontColor=#232F3E;gradientColor=#945DF2;gradientDirection=north;fillColor=#5A30B5;strokeColor=#ffffff;dashed=0;verticalLabelPosition=bottom;verticalAlign=top;align=center;html=1;fontSize=12;fontStyle=0;aspect=fixed;shape=mxgraph.aws4.resourceIcon;resIcon=mxgraph.aws4.athena;" parent="1" vertex="1">
          <mxGeometry x="720" y="280" width="80" height="80" as="geometry" />
        </mxCell>
        <mxCell id="c9r8FFtM3dRX4WRmIroB-1" value="Consumo de APIs" style="text;html=1;strokeColor=none;fillColor=none;align=center;verticalAlign=middle;whiteSpace=wrap;rounded=0;" vertex="1" parent="1">
          <mxGeometry x="160" y="250" width="80" height="30" as="geometry" />
        </mxCell>
        <mxCell id="c9r8FFtM3dRX4WRmIroB-2" value="Dado directionado a S3" style="text;html=1;strokeColor=none;fillColor=none;align=center;verticalAlign=middle;whiteSpace=wrap;rounded=0;" vertex="1" parent="1">
          <mxGeometry x="283.5" y="160" width="130" height="30" as="geometry" />
        </mxCell>
        <mxCell id="c9r8FFtM3dRX4WRmIroB-3" value="ETL / ELT" style="text;html=1;strokeColor=none;fillColor=none;align=center;verticalAlign=middle;whiteSpace=wrap;rounded=0;" vertex="1" parent="1">
          <mxGeometry x="560" y="160" width="130" height="30" as="geometry" />
        </mxCell>
        <mxCell id="c9r8FFtM3dRX4WRmIroB-4" value="Consultas OnDemand" style="text;html=1;strokeColor=none;fillColor=none;align=center;verticalAlign=middle;whiteSpace=wrap;rounded=0;" vertex="1" parent="1">
          <mxGeometry x="550" y="280" width="130" height="30" as="geometry" />
        </mxCell>
        <mxCell id="c9r8FFtM3dRX4WRmIroB-5" value="users" style="sketch=0;outlineConnect=0;gradientColor=none;fontColor=#545B64;strokeColor=none;fillColor=#879196;dashed=0;verticalLabelPosition=bottom;verticalAlign=top;align=center;html=1;fontSize=12;fontStyle=0;aspect=fixed;shape=mxgraph.aws4.illustration_users;pointerEvents=1" vertex="1" parent="1">
          <mxGeometry x="120" y="388" width="100" height="100" as="geometry" />
        </mxCell>
        <mxCell id="c9r8FFtM3dRX4WRmIroB-10" style="edgeStyle=orthogonalEdgeStyle;rounded=0;orthogonalLoop=1;jettySize=auto;html=1;" edge="1" parent="1" source="c9r8FFtM3dRX4WRmIroB-6" target="c9r8FFtM3dRX4WRmIroB-5">
          <mxGeometry relative="1" as="geometry" />
        </mxCell>
        <mxCell id="c9r8FFtM3dRX4WRmIroB-6" value="" style="sketch=0;outlineConnect=0;fontColor=#232F3E;gradientColor=none;fillColor=#232F3D;strokeColor=none;dashed=0;verticalLabelPosition=bottom;verticalAlign=top;align=center;html=1;fontSize=12;fontStyle=0;aspect=fixed;pointerEvents=1;shape=mxgraph.aws4.documents;" vertex="1" parent="1">
          <mxGeometry x="310" y="399" width="64" height="78" as="geometry" />
        </mxCell>
        <mxCell id="c9r8FFtM3dRX4WRmIroB-9" style="edgeStyle=orthogonalEdgeStyle;rounded=0;orthogonalLoop=1;jettySize=auto;html=1;" edge="1" parent="1" source="c9r8FFtM3dRX4WRmIroB-7" target="c9r8FFtM3dRX4WRmIroB-6">
          <mxGeometry relative="1" as="geometry" />
        </mxCell>
        <mxCell id="c9r8FFtM3dRX4WRmIroB-17" style="edgeStyle=orthogonalEdgeStyle;rounded=0;orthogonalLoop=1;jettySize=auto;html=1;" edge="1" parent="1" source="c9r8FFtM3dRX4WRmIroB-7" target="c9r8FFtM3dRX4WRmIroB-13">
          <mxGeometry relative="1" as="geometry">
            <mxPoint x="490" y="590" as="targetPoint" />
            <Array as="points">
              <mxPoint x="490" y="590" />
            </Array>
          </mxGeometry>
        </mxCell>
        <mxCell id="c9r8FFtM3dRX4WRmIroB-7" value="" style="sketch=0;outlineConnect=0;fontColor=#232F3E;gradientColor=none;fillColor=#232F3D;strokeColor=none;dashed=0;verticalLabelPosition=bottom;verticalAlign=top;align=center;html=1;fontSize=12;fontStyle=0;aspect=fixed;pointerEvents=1;shape=mxgraph.aws4.client;" vertex="1" parent="1">
          <mxGeometry x="451" y="400" width="78" height="76" as="geometry" />
        </mxCell>
        <mxCell id="c9r8FFtM3dRX4WRmIroB-11" value="users" style="sketch=0;outlineConnect=0;gradientColor=none;fontColor=#545B64;strokeColor=none;fillColor=#879196;dashed=0;verticalLabelPosition=bottom;verticalAlign=top;align=center;html=1;fontSize=12;fontStyle=0;aspect=fixed;shape=mxgraph.aws4.illustration_users;pointerEvents=1" vertex="1" parent="1">
          <mxGeometry x="120" y="530" width="100" height="100" as="geometry" />
        </mxCell>
        <mxCell id="c9r8FFtM3dRX4WRmIroB-12" style="edgeStyle=orthogonalEdgeStyle;rounded=0;orthogonalLoop=1;jettySize=auto;html=1;" edge="1" parent="1" source="c9r8FFtM3dRX4WRmIroB-13" target="c9r8FFtM3dRX4WRmIroB-11">
          <mxGeometry relative="1" as="geometry" />
        </mxCell>
        <mxCell id="c9r8FFtM3dRX4WRmIroB-13" value="" style="sketch=0;outlineConnect=0;fontColor=#232F3E;gradientColor=none;fillColor=#232F3D;strokeColor=none;dashed=0;verticalLabelPosition=bottom;verticalAlign=top;align=center;html=1;fontSize=12;fontStyle=0;aspect=fixed;pointerEvents=1;shape=mxgraph.aws4.documents;" vertex="1" parent="1">
          <mxGeometry x="310" y="541" width="64" height="78" as="geometry" />
        </mxCell>
        <mxCell id="c9r8FFtM3dRX4WRmIroB-14" value="users" style="sketch=0;outlineConnect=0;gradientColor=none;fontColor=#545B64;strokeColor=none;fillColor=#879196;dashed=0;verticalLabelPosition=bottom;verticalAlign=top;align=center;html=1;fontSize=12;fontStyle=0;aspect=fixed;shape=mxgraph.aws4.illustration_users;pointerEvents=1" vertex="1" parent="1">
          <mxGeometry x="120" y="680" width="100" height="100" as="geometry" />
        </mxCell>
        <mxCell id="c9r8FFtM3dRX4WRmIroB-15" style="edgeStyle=orthogonalEdgeStyle;rounded=0;orthogonalLoop=1;jettySize=auto;html=1;" edge="1" parent="1" source="c9r8FFtM3dRX4WRmIroB-16" target="c9r8FFtM3dRX4WRmIroB-14">
          <mxGeometry relative="1" as="geometry" />
        </mxCell>
        <mxCell id="c9r8FFtM3dRX4WRmIroB-16" value="" style="sketch=0;outlineConnect=0;fontColor=#232F3E;gradientColor=none;fillColor=#232F3D;strokeColor=none;dashed=0;verticalLabelPosition=bottom;verticalAlign=top;align=center;html=1;fontSize=12;fontStyle=0;aspect=fixed;pointerEvents=1;shape=mxgraph.aws4.documents;" vertex="1" parent="1">
          <mxGeometry x="310" y="691" width="64" height="78" as="geometry" />
        </mxCell>
        <mxCell id="c9r8FFtM3dRX4WRmIroB-18" style="edgeStyle=orthogonalEdgeStyle;rounded=0;orthogonalLoop=1;jettySize=auto;html=1;" edge="1" parent="1">
          <mxGeometry relative="1" as="geometry">
            <mxPoint x="374" y="733" as="targetPoint" />
            <mxPoint x="490" y="590" as="sourcePoint" />
            <Array as="points">
              <mxPoint x="490" y="733" />
            </Array>
          </mxGeometry>
        </mxCell>
        <mxCell id="c9r8FFtM3dRX4WRmIroB-19" value="Ingestão local de dados" style="text;html=1;strokeColor=none;fillColor=none;align=center;verticalAlign=middle;whiteSpace=wrap;rounded=0;" vertex="1" parent="1">
          <mxGeometry x="560" y="410" width="130" height="30" as="geometry" />
        </mxCell>
        <mxCell id="c9r8FFtM3dRX4WRmIroB-20" value="BI Report" style="text;html=1;strokeColor=none;fillColor=none;align=center;verticalAlign=middle;whiteSpace=wrap;rounded=0;" vertex="1" parent="1">
          <mxGeometry x="277" y="358" width="130" height="30" as="geometry" />
        </mxCell>
        <mxCell id="c9r8FFtM3dRX4WRmIroB-21" value="BI Report" style="text;html=1;strokeColor=none;fillColor=none;align=center;verticalAlign=middle;whiteSpace=wrap;rounded=0;" vertex="1" parent="1">
          <mxGeometry x="277" y="500" width="130" height="30" as="geometry" />
        </mxCell>
        <mxCell id="c9r8FFtM3dRX4WRmIroB-22" value="BI Report" style="text;html=1;strokeColor=none;fillColor=none;align=center;verticalAlign=middle;whiteSpace=wrap;rounded=0;" vertex="1" parent="1">
          <mxGeometry x="284" y="650" width="130" height="30" as="geometry" />
        </mxCell>
      </root>
    </mxGraphModel>
  </diagram>
</mxfile>
